<?xml version="1.0" standalone="no"?>
<!DOCTYPE svg PUBLIC "-//W3C//DTD SVG 20010904//EN"
 "http://www.w3.org/TR/2001/REC-SVG-20010904/DTD/svg10.dtd">
<svg version="1.0" xmlns="http://www.w3.org/2000/svg"
 width="560.000000pt" height="900.000000pt" viewBox="0 0 560.000000 900.000000"
 preserveAspectRatio="xMidYMid meet">

<g transform="translate(0.000000,900.000000) scale(0.100000,-0.100000)"
fill="#000000" stroke="none">
<path d="M3387 8313 c-4 -3 -7 -1238 -7 -2744 0 -1769 -4 -2792 -10 -2891 -13
-187 -34 -346 -60 -457 -78 -322 -323 -464 -780 -448 -400 13 -560 138 -643
502 -19 83 -20 131 -24 638 l-5 547 -811 -2 -812 -3 1 -545 c1 -339 5 -592 13
-670 86 -895 418 -1413 1126 -1751 224 -107 474 -181 750 -221 123 -18 197
-22 410 -22 145 -1 315 5 385 12 767 79 1300 348 1671 846 277 371 422 854
459 1531 6 121 10 1192 10 2938 l0 2747 -833 0 c-459 0 -837 -3 -840 -7z
m1470 -2960 c-2 -2125 -6 -2794 -15 -2878 -38 -328 -77 -531 -143 -729 -186
-560 -584 -959 -1149 -1151 -326 -111 -575 -148 -990 -149 -249 0 -347 8 -540
45 -427 81 -817 276 -1080 539 -281 280 -436 666 -489 1214 -6 60 -11 313 -11
563 l0 453 610 0 610 0 0 -367 c0 -380 9 -541 36 -677 51 -255 187 -452 374
-545 127 -62 255 -91 431 -98 456 -18 762 108 918 376 99 169 144 454 161
1011 5 173 10 1405 10 2738 l0 2422 635 0 635 0 -3 -2767z"/>
</g>
</svg>
