<?xml version="1.0" standalone="no"?>
<!DOCTYPE svg PUBLIC "-//W3C//DTD SVG 20010904//EN"
 "http://www.w3.org/TR/2001/REC-SVG-20010904/DTD/svg10.dtd">
<svg version="1.0" xmlns="http://www.w3.org/2000/svg"
 width="560.000000pt" height="900.000000pt" viewBox="0 0 560.000000 900.000000"
 preserveAspectRatio="xMidYMid meet">

<g transform="translate(0.000000,900.000000) scale(0.100000,-0.100000)"
fill="#000000" stroke="none">
<path d="M3110 5773 c0 -1429 -5 -2717 -10 -2863 -16 -463 -57 -643 -177 -771
-57 -61 -147 -122 -212 -144 l-49 -16 -60 30 c-251 126 -341 401 -373 1131 -6
146 -13 267 -15 269 -1 2 -119 -13 -262 -33 -142 -20 -266 -36 -275 -36 -13 0
-17 9 -17 35 0 19 -5 35 -11 35 -13 0 -1275 -173 -1421 -195 -54 -8 -101 -15
-104 -15 -3 0 -4 -170 -1 -377 6 -440 21 -586 93 -868 231 -916 916 -1476
1904 -1554 196 -16 946 -13 1133 5 397 36 784 161 1085 351 219 138 431 347
574 568 225 347 332 720 390 1365 13 150 24 4420 13 5188 l-7 492 -1099 0
-1099 0 0 -2597z m2010 277 l0 -2120 -630 0 -630 0 0 2120 0 2120 630 0 630 0
0 -2120z"/>
</g>
</svg>
